# AST/ASF file generated using VICON BodyLanguage
# -----------------------------------------------
:version 1.10
:name VICON
:units
  mass 1.0
  length 0.45
  angle deg
:documentation
   .ast/.asf automatically generated from VICON data using
   VICON BodyBuilder and BodyLanguage model FoxedUp or BRILLIANT.MOD
:root
   order TX TY TZ RX RY RZ
   axis XYZ
   position 0 0 0  
   orientation 0 0 0 
:bonedata
  begin
     id 1 
     name lhipjoint
     direction 0.440178 -0.822639 0.359871 
     length 2.53113 
     axis 0 0 0  XYZ
  end
  begin
     id 2 
     name lfemur
     direction 0.34202 -0.939693 0  
     length 7.88132  
     axis 0 0 20  XYZ
    dof rx ry rz
    limits (-160.0 20.0)
           (-70.0 70.0)
           (-60.0 70.0)
  end
  begin
     id 3 
     name ltibia
     direction 0.34202 -0.939693 0   
     length 8.43783   
     axis 0 0 20   XYZ
    dof rx
    limits (-10.0 170.0)
  end
  begin
     id 4 
     name lfoot
     direction 0.0886351 -0.243523 0.965837   
     length 2.63414   
     axis -90 7.62852e-016 20   XYZ
    dof rx rz
    limits (-45.0 90.0)
           (-70.0 20.0)
  end
  begin
     id 5 
     name ltoes
     direction 1.53703e-011 -4.21717e-011 1   
     length 1.31427   
     axis -90 7.62852e-016 20   XYZ
    dof rx
    limits (-90.0 20.0)
  end
  begin
     id 6 
     name rhipjoint
     direction -0.399779 -0.839773 0.367367   
     length 2.47948  
     axis 0 0 0  XYZ 
  end
  begin
     id 7 
     name rfemur
     direction -0.34202 -0.939693 0   
     length 7.74806   
     axis 0 0 -20   XYZ
    dof rx ry rz
    limits (-160.0 20.0)
           (-70.0 70.0)
           (-70.0 60.0)
  end
  begin
     id 8 
     name rtibia
     direction -0.34202 -0.939693 0   
     length 8.74432   
     axis 0 0 -20   XYZ
    dof rx
    limits (-10.0 170.0)
 end
 begin
     id 9 
     name rfoot
     direction -0.108514 -0.298139 0.948334   
     length 2.66102  
     axis -90 -7.62852e-016 -20   XYZ
    dof rx rz
    limits (-45.0 90.0)
           (-20.0 70.0)
  end
  begin
     id 10 
     name rtoes
     direction -1.53392e-011 -4.22077e-011 1   
     length 1.31983   
     axis -90 -7.62852e-016 -20   XYZ
    dof rx
    limits (-90.0 20.0)
  end
  begin
     id 11 
     name lowerback
     direction 0.0113257 0.999866 0.0118602   
     length 2.58694   
     axis 0 0 0   XYZ
    dof rx ry rz
    limits (-20.0 45.0)
           (-30.0 30.0)
           (-30.0 30.0)
  end
  begin
     id 12 
     name upperback
     direction -0.0164747 0.995193 -0.0965375   
     length 2.52368   
     axis 0 0 0   XYZ
    dof rx ry rz
    limits (-20.0 45.0)
           (-30.0 30.0)
           (-30.0 30.0)
  end
  begin
     id 13 
     name thorax
     direction -0.0194301 0.99433 -0.104552   
     length 2.56099   
     axis 0 0 0   XYZ
    dof rx ry rz
    limits (-20.0 45.0)
           (-30.0 30.0)
           (-30.0 30.0)
  end
  begin
     id 14 
     name lowerneck
     direction 0.0148543 0.995587 -0.092657   
     length 1.71582   
     axis 0 0 0   XYZ
    dof rx ry rz
    limits (-20.0 45.0)
           (-30.0 30.0)
           (-30.0 30.0)
  end
  begin
     id 15 
     name upperneck
     direction -0.0135467 0.993656 -0.111639   
     length 1.68937   
     axis 0 0 0   XYZ
    dof rx ry rz
    limits (-20.0 45.0)
           (-30.0 30.0)
           (-30.0 30.0)
  end
  begin
     id 16
     name head
     direction -0.00615349 0.999547 -0.029448  
     length 1.7462  
     axis 0 0 0   XYZ
    dof rx ry rz
    limits (-20.0 45.0)
           (-30.0 30.0)
           (-30.0 30.0)
  end
  begin
     id 17 
     name lclavicle
     direction 0.988267 0.149885 0.0293713  
     length 4.47222  
     axis 0 0 0   XYZ
    dof ry rz
    limits (-20.0 10.0)
           (0.0 20.0)
  end
  begin
     id 18 
     name lhumerus
     direction 1 -4.48986e-011 -1.14833e-027   
     length 5.37148   
     axis 180 -30 -90   XYZ
    dof rx ry rz
    limits (-60.0 90.0)
           (-90.0 90.0)
           (-90.0 90.0)
  end
  begin
     id 19
     name lradius
     direction 0.999998 0.00170963 -0.000987055   
     length 3.94212   
     axis 180 -30 -90   XYZ
    dof rx
    limits (-10.0 170.0)
  end
  begin
     id 20
     name lwrist
     direction 0.999998 7.53149e-005 -0.00194706   
     length 1.97106   
     axis 4.65056e-015 90 90   XYZ
    dof ry
    limits (-180.0 0.0)
 end
  begin
     id 21 
     name lhand
     direction 1 -4.48973e-011 -1.31746e-026   
     length 1.17917   
     axis 8.4065e-015 90 90   XYZ
    dof rx rz
    limits (-90.0 90.0)
           (-45.0 45.0)
  end
  begin
     id 22 
     name lfingers
     direction 1 -4.49107e-011 -2.63492e-026   
     length 0.950679   
     axis 1.6813e-014 90 90   XYZ
    dof rx
    limits (0.0 90.0)
  end
  begin
     id 23
     name lthumb
     direction 0.707107 -6.35048e-011 0.707107   
     length 1.36499   
     axis -90 45 2.85299e-015   XYZ
    dof rx rz
    limits (-45.0 45.0)
           (-45.0 45.0)
  end
  begin
     id 24 
     name rclavicle
     direction -0.996699 0.0642895 -0.0495725   
     length 4.62611  
     axis 0 0 0   XYZ 
    dof ry rz
    limits (-10.0 20.0)
           (-20.0 0.0)
  end
  begin
     id 25 
     name rhumerus
     direction -1 -4.48919e-011 -2.41059e-027  
     length 5.4981   
     axis 180 30 90   XYZ
    dof rx ry rz
    limits (-90.0 60.0)
           (-90.0 90.0)
           (-90.0 90.0)
  end
  begin
     id 26 
     name rradius
     direction -0.999999 0.00118101 -0.000681858   
     length 3.48381   
     axis 180 30 90   XYZ
    dof rx
    limits (-10.0 170.0)
  end
  begin
     id 27 
     name rwrist
     direction -0.999999 0.000321823 -0.00132288   
     length 1.7419   
     axis 4.65056e-015 -90 -90   XYZ
    dof ry
    limits (-180.0 0.0)
  end
  begin
     id 28
     name rhand
     direction -1 -4.49022e-011 -1.31746e-026   
     length 1.34932   
     axis 8.4065e-015 -90 -90   XYZ
    dof rx rz
    limits (-90.0 90.0)
           (-45.0 45.0)
  end
  begin
     id 29
     name rfingers
     direction -1 -4.49178e-011 -2.63492e-026   
     length 1.08785   
     axis 1.6813e-014 -90 -90   XYZ
    dof rx
    limits (0.0 90.0)
  end
  begin
     id 30
     name rthumb
     direction -0.707107 -6.34713e-011 0.707107   
     length 1.56195   
     axis -90 -45 -2.85299e-015   XYZ
    dof rx rz
    limits (-45.0 45.0)
           (-45.0 45.0)
  end
:hierarchy
  begin
    root lhipjoint rhipjoint lowerback
    lhipjoint lfemur
    lfemur ltibia
    ltibia lfoot
    lfoot ltoes
    rhipjoint rfemur
    rfemur rtibia
    rtibia rfoot
    rfoot rtoes
    lowerback upperback
    upperback thorax
    thorax lowerneck lclavicle rclavicle
    lowerneck upperneck
    upperneck head
    lclavicle lhumerus
    lhumerus lradius
    lradius lwrist
    lwrist lhand lthumb
    lhand lfingers
    rclavicle rhumerus
    rhumerus rradius
    rradius rwrist
    rwrist rhand rthumb
    rhand rfingers
  end

#!OML:ASF X:\für Bonn\!DataBase\2005_08_10_Bjorn_Final\c3d\bjorn.ASF
:FULLY-SPECIFIED
:DEGREES
1
root -0.702398 18.712 9.37387 -183.203 12.6827 175.683
lowerback -5.01822 -1.30913 -2.8775
upperback 11.8391 0.0880722 -2.44882
thorax 16.037 0.376499 -0.996889
lowerneck -7.7132 1.93322 6.46379
upperneck 12.8697 3.23358 -8.37393
head 5.36672 1.45594 -3.45691
rclavicle 1.2921e-014 1.23246e-014
rhumerus -382.41 -13.0646 268.625
rradius 44.7086
rwrist 3.60196
rhand -20.3269 13.7881
rfingers 7.12502
rthumb 6.02422 -16.1062
lclavicle 1.2921e-014 1.23246e-014
lhumerus -17.2111 -26.82 96.526
lradius 34.2714
lwrist -3.62093
lhand -23.3609 -14.1423
lfingers 7.12502
lthumb 3.09462 15.815
rfemur -23.5081 -0.0764513 4.78446
rtibia 35.994
rfoot -12.896 14.3472
rtoes -15.9072
lfemur 3.95107 -0.21222 -17.8927
ltibia 22.9543
lfoot -19.5498 -11.6834
ltoes -0.126904
2
root -0.625281 18.6943 9.33028 -183.357 12.5524 175.87
lowerback -4.99598 -1.31616 -2.61771
upperback 11.8847 0.0262383 -2.30653
thorax 16.0728 0.367228 -0.993391
lowerneck -7.94489 1.98123 6.58742
upperneck 12.7285 3.28238 -8.60096
head 5.37224 1.46255 -3.54415
rclavicle 4.11484e-014 1.49089e-014
rhumerus -381.986 -12.7556 268.38
rradius 44.4003
rwrist 3.94217
rhand -20.8564 14.0607
rfingers 7.12502
rthumb 5.51303 -15.8476
lclavicle 4.11484e-014 1.49089e-014
lhumerus -17.2793 -27.1984 96.6771
lradius 33.9484
lwrist -3.55518
lhand -23.3129 -13.8459
lfingers 7.12502
lthumb 3.14096 16.1108
rfemur -23.268 -0.0279267 5.16648
rtibia 36.2949
rfoot -12.5668 14.1922
rtoes -15.3193
lfemur 4.47285 -0.55184 -17.5368
ltibia 22.76
lfoot -19.7709 -11.3931
ltoes -0.695338
3
root -0.547128 18.6776 9.28618 -183.495 12.4153 176.091
lowerback -4.98532 -1.30682 -2.28159
upperback 11.919 -0.0189185 -2.19912
thorax 16.1009 0.37823 -1.06852
lowerneck -8.10479 2.02187 6.77226
upperneck 12.535 3.30731 -8.80372
head 5.34811 1.46328 -3.63573
rclavicle 3.34952e-014 -3.37934e-015
rhumerus -381.582 -12.4283 268.09
rradius 44.0917
rwrist 4.1793
rhand -21.3601 14.3323
rfingers 7.12502
rthumb 5.02666 -15.5881
lclavicle 3.34952e-014 -3.37934e-015
lhumerus -17.382 -27.6074 96.7557
lradius 33.6517
lwrist -3.46698
lhand -23.2523 -13.5566
lfingers 7.12502
lthumb 3.19948 16.3991
rfemur -23.0277 0.0178968 5.59051
rtibia 36.5988
rfoot -12.4048 14.0856
rtoes -15.2367
lfemur 4.98375 -0.902737 -17.1497
ltibia 22.561
lfoot -19.9679 -11.0532
ltoes -1.47203
4
root -0.468932 18.6637 9.24205 -183.63 12.2594 176.331
lowerback -4.96354 -1.29966 -1.93073
upperback 11.9416 -0.0737633 -2.07889
thorax 16.1067 0.384664 -1.13913
lowerneck -8.26366 2.05496 6.8898
upperneck 12.39 3.33029 -8.96073
head 5.33699 1.46361 -3.70194
rclavicle 1.50082e-014 1.59028e-015
rhumerus -381.182 -12.0312 267.803
rradius 43.7752
rwrist 4.36007
rhand -21.8501 14.5769
rfingers 7.12502
rthumb 4.55354 -15.3542
lclavicle 1.50082e-014 1.59028e-015
lhumerus -17.4375 -28.1153 96.8607
lradius 33.2809
lwrist -3.08981
lhand -23.1069 -13.2354
lfingers 7.12502
lthumb 3.33989 16.7182
rfemur -22.7725 0.0176019 6.04484
rtibia 36.9072
rfoot -12.3854 14.0141
rtoes -15.7708
lfemur 5.48864 -1.28647 -16.7509
ltibia 22.3525
lfoot -20.1505 -10.6701
ltoes -2.37854
5
root -0.390912 18.6495 9.19748 -183.752 12.1025 176.586
lowerback -4.97353 -1.30143 -1.56525
upperback 11.9768 -0.140693 -1.95064
thorax 16.1491 0.387449 -1.21159
lowerneck -8.37779 2.10145 6.96568
upperneck 12.1507 3.36999 -9.1128
head 5.28999 1.47146 -3.75783
rclavicle -4.92986e-014 9.93923e-015
rhumerus -380.718 -11.5394 267.539
rradius 43.4092
rwrist 4.46416
rhand -22.2718 14.8484
rfingers 7.12502
rthumb 4.14633 -15.0909
lclavicle -4.92986e-014 9.93923e-015
lhumerus -17.4033 -28.6042 96.9447
lradius 32.8701
lwrist -2.53847
lhand -22.7907 -12.9497
lfingers 7.12502
lthumb 3.64519 16.9989
rfemur -22.5303 -0.030329 6.52526
rtibia 37.2183
rfoot -12.4113 13.9764
rtoes -16.5434
lfemur 5.98013 -1.70849 -16.3499
ltibia 22.1417
lfoot -20.2772 -10.2814
ltoes -3.10261
6
root -0.311323 18.6378 9.15282 -183.885 11.9384 176.852
lowerback -4.96769 -1.30574 -1.21732
upperback 12.0013 -0.213021 -1.80891
thorax 16.1678 0.383868 -1.25987
lowerneck -8.42607 2.14096 7.0071
upperneck 11.9025 3.40627 -9.24056
head 5.22788 1.48024 -3.80066
rclavicle 4.02539e-015 4.96962e-015
rhumerus -380.282 -10.96 267.284
rradius 43.0625
rwrist 4.59
rhand -22.6497 15.0363
rfingers 7.12502
rthumb 3.78141 -14.9099
lclavicle 4.02539e-015 4.96962e-015
lhumerus -17.3608 -28.9143 97.0454
lradius 32.4159
lwrist -2.0939
lhand -22.5346 -12.7165
lfingers 7.12502
lthumb 3.8925 17.2277
rfemur -22.2606 -0.07419 7.02045
rtibia 37.5344
rfoot -12.4729 13.9338
rtoes -17.0054
lfemur 6.4814 -2.0751 -15.922
ltibia 21.9285
lfoot -20.371 -9.93058
ltoes -3.94423
7
root -0.233332 18.6269 9.10742 -184.01 11.7847 177.13
lowerback -4.98019 -1.31327 -0.843677
upperback 12.0282 -0.29452 -1.65458
thorax 16.2013 0.37829 -1.31028
lowerneck -8.45326 2.17624 6.97327
upperneck 11.6442 3.44204 -9.32446
head 5.15729 1.48931 -3.81696
rclavicle 7.45443e-015 8.94531e-015
rhumerus -379.813 -10.2903 267.071
rradius 42.6779
rwrist 4.59597
rhand -22.9362 15.2663
rfingers 7.12502
rthumb 3.5047 -14.6846
lclavicle 7.45443e-015 8.94531e-015
lhumerus -17.2616 -29.156 97.1515
lradius 31.8793
lwrist -1.79094
lhand -22.604 -12.585
lfingers 7.12502
lthumb 3.82554 17.3604
rfemur -21.9972 -0.140073 7.5258
rtibia 37.8532
rfoot -12.5074 13.9392
rtoes -17.0548
lfemur 6.97285 -2.45328 -15.5021
ltibia 21.7243
lfoot -20.4708 -9.55228
ltoes -4.87884
8
root -0.155364 18.6175 9.06276 -184.124 11.6241 177.409
lowerback -4.99531 -1.31651 -0.457675
upperback 12.0462 -0.369766 -1.51981
thorax 16.2253 0.378898 -1.38839
lowerneck -8.44923 2.20646 6.97598
upperneck 11.3557 3.46299 -9.39986
head 5.07139 1.49411 -3.83779
rclavicle -4.22417e-015 -2.95195e-014
rhumerus -379.337 -9.66091 266.83
rradius 42.305
rwrist 4.63266
rhand -23.1238 15.3975
rfingers 7.12502
rthumb 3.32351 -14.5563
lclavicle -4.22417e-015 -2.95195e-014
lhumerus -17.1542 -29.3366 97.2263
lradius 31.3353
lwrist -1.63011
lhand -22.6742 -12.4052
lfingers 7.12502
lthumb 3.75775 17.5415
rfemur -21.7435 -0.178569 8.03034
rtibia 38.1753
rfoot -12.5355 13.9304
rtoes -16.4597
lfemur 7.44277 -2.84387 -15.0844
ltibia 21.5298
lfoot -20.536 -9.17637
ltoes -5.64529
9
root -0.0794165 18.6089 9.01908 -184.242 11.4448 177.669
lowerback -4.99503 -1.33956 -0.0943496
upperback 12.056 -0.471867 -1.37549
thorax 16.2286 0.362903 -1.44791
lowerneck -8.46726 2.24638 6.88388
upperneck 11.098 3.50303 -9.40878
head 4.99785 1.50802 -3.82036
rclavicle -1.42628e-014 -4.37326e-015
rhumerus -378.824 -8.95162 266.62
rradius 41.905
rwrist 4.708
rhand -23.2136 15.3953
rfingers 7.12502
rthumb 3.23684 -14.5599
lclavicle -1.42628e-014 -4.37326e-015
lhumerus -17.007 -29.4137 97.3051
lradius 30.7519
lwrist -1.5624
lhand -22.7532 -12.2351
lfingers 7.12502
lthumb 3.68143 17.7128
rfemur -21.4872 -0.306346 8.51397
rtibia 38.4913
rfoot -12.6358 13.963
rtoes -16.0404
lfemur 7.90159 -3.24941 -14.7096
ltibia 21.3599
lfoot -20.6241 -8.69614
ltoes -6.74743
10
root -0.0063446 18.601 8.97579 -184.35 11.2622 177.923
lowerback -5.0135 -1.38517 0.265508
upperback 12.0778 -0.604437 -1.21524
thorax 16.2584 0.332087 -1.49338
lowerneck -8.46383 2.29627 6.68408
upperneck 10.7792 3.56159 -9.37371
head 4.90116 1.53041 -3.76949
rclavicle -1.80273e-014 -2.83268e-015
rhumerus -378.243 -8.18473 266.455
rradius 41.5152
rwrist 4.85516
rhand -23.1785 15.2677
rfingers 7.12502
rthumb 3.27068 -14.687
lclavicle -1.80273e-014 -2.83268e-015
lhumerus -16.7765 -29.3366 97.3861
lradius 30.1401
lwrist -1.61033
lhand -22.8635 -12.0391
lfingers 7.12502
lthumb 3.57492 17.9107
rfemur -21.2401 -0.478585 8.98209
rtibia 38.806
rfoot -12.8276 14.0345
rtoes -15.7582
lfemur 8.33575 -3.66239 -14.357
ltibia 21.2119
lfoot -20.6843 -8.23894
ltoes -7.73456
11
root 0.063109 18.5934 8.93334 -184.468 11.0674 178.202
lowerback -5.00535 -1.42561 0.713567
upperback 12.0917 -0.738625 -1.07424
thorax 16.2587 0.313341 -1.6095
lowerneck -8.4286 2.32816 6.51684
upperneck 10.4654 3.59592 -9.35066
head 4.79923 1.54327 -3.73013
rclavicle 5.00068e-016 7.92654e-015
rhumerus -377.643 -7.5052 266.276
rradius 41.0686
rwrist 5.07989
rhand -23.1124 15.1357
rfingers 7.12502
rthumb 3.33457 -14.818
lclavicle 5.00068e-016 7.92654e-015
lhumerus -16.5546 -29.2689 97.439
lradius 29.5183
lwrist -1.67158
lhand -22.9495 -11.8074
lfingers 7.12502
lthumb 3.49189 18.1438
rfemur -20.9716 -0.631496 9.46189
rtibia 39.1098
rfoot -13.0085 14.1134
rtoes -15.1823
lfemur 8.76601 -4.10618 -14.0023
ltibia 21.1084
lfoot -20.7364 -7.70149
ltoes -8.97145
